<mxfile host="app.diagrams.net" modified="2021-02-23T07:21:04.234Z" agent="5.0 (Macintosh; Intel Mac OS X 11_1_0) AppleWebKit/537.36 (KHTML, like Gecko) Chrome/88.0.4324.182 Safari/537.36" etag="OcH7Bpz7TYezCxoct0jl" version="14.4.2" type="github">
  <diagram id="R2lEEEUBdFMjLlhIrx00" name="Page-1">
    <mxGraphModel dx="1261" dy="1143" grid="0" gridSize="10" guides="1" tooltips="1" connect="1" arrows="1" fold="1" page="0" pageScale="1" pageWidth="850" pageHeight="1100" math="0" shadow="0" extFonts="Permanent Marker^https://fonts.googleapis.com/css?family=Permanent+Marker">
      <root>
        <mxCell id="0" />
        <mxCell id="1" parent="0" />
        <mxCell id="GFCNHjRBVq-8XJuplZEM-47" value="" style="rounded=1;whiteSpace=wrap;html=1;dashed=1;fillColor=none;align=left;" vertex="1" parent="1">
          <mxGeometry x="11" y="310" width="911" height="617" as="geometry" />
        </mxCell>
        <mxCell id="GFCNHjRBVq-8XJuplZEM-45" value="" style="rounded=1;whiteSpace=wrap;html=1;dashed=1;fillColor=none;align=left;" vertex="1" parent="1">
          <mxGeometry x="23" y="-186" width="893" height="466" as="geometry" />
        </mxCell>
        <mxCell id="GFCNHjRBVq-8XJuplZEM-17" value="" style="rounded=1;whiteSpace=wrap;html=1;fillColor=none;dashed=1;" vertex="1" parent="1">
          <mxGeometry x="157" y="12" width="307" height="137" as="geometry" />
        </mxCell>
        <mxCell id="C-vyLk0tnHw3VtMMgP7b-2" value="iam_account_api_relation" style="shape=table;startSize=30;container=1;collapsible=1;childLayout=tableLayout;fixedRows=1;rowLines=0;fontStyle=1;align=center;resizeLast=1;" parent="1" vertex="1">
          <mxGeometry x="74" y="609" width="274" height="293" as="geometry" />
        </mxCell>
        <mxCell id="C-vyLk0tnHw3VtMMgP7b-3" value="" style="shape=partialRectangle;collapsible=0;dropTarget=0;pointerEvents=0;fillColor=none;points=[[0,0.5],[1,0.5]];portConstraint=eastwest;top=0;left=0;right=0;bottom=1;" parent="C-vyLk0tnHw3VtMMgP7b-2" vertex="1">
          <mxGeometry y="30" width="274" height="30" as="geometry" />
        </mxCell>
        <mxCell id="C-vyLk0tnHw3VtMMgP7b-4" value="PK" style="shape=partialRectangle;overflow=hidden;connectable=0;fillColor=none;top=0;left=0;bottom=0;right=0;fontStyle=1;" parent="C-vyLk0tnHw3VtMMgP7b-3" vertex="1">
          <mxGeometry width="30" height="30" as="geometry" />
        </mxCell>
        <mxCell id="C-vyLk0tnHw3VtMMgP7b-5" value="id" style="shape=partialRectangle;overflow=hidden;connectable=0;fillColor=none;top=0;left=0;bottom=0;right=0;align=left;spacingLeft=6;fontStyle=5;" parent="C-vyLk0tnHw3VtMMgP7b-3" vertex="1">
          <mxGeometry x="30" width="244" height="30" as="geometry" />
        </mxCell>
        <mxCell id="C-vyLk0tnHw3VtMMgP7b-6" value="" style="shape=partialRectangle;collapsible=0;dropTarget=0;pointerEvents=0;fillColor=none;points=[[0,0.5],[1,0.5]];portConstraint=eastwest;top=0;left=0;right=0;bottom=0;" parent="C-vyLk0tnHw3VtMMgP7b-2" vertex="1">
          <mxGeometry y="60" width="274" height="213" as="geometry" />
        </mxCell>
        <mxCell id="C-vyLk0tnHw3VtMMgP7b-7" value="" style="shape=partialRectangle;overflow=hidden;connectable=0;fillColor=none;top=0;left=0;bottom=0;right=0;" parent="C-vyLk0tnHw3VtMMgP7b-6" vertex="1">
          <mxGeometry width="30" height="213" as="geometry" />
        </mxCell>
        <mxCell id="C-vyLk0tnHw3VtMMgP7b-8" value="user_code&#xa;user_name&#xa;service_third_code&#xa;tenant_id&#xa;root&#xa;api_code&#xa;env" style="shape=partialRectangle;overflow=hidden;connectable=0;fillColor=none;top=0;left=0;bottom=0;right=0;align=left;spacingLeft=6;" parent="C-vyLk0tnHw3VtMMgP7b-6" vertex="1">
          <mxGeometry x="30" width="244" height="213" as="geometry" />
        </mxCell>
        <mxCell id="C-vyLk0tnHw3VtMMgP7b-9" value="" style="shape=partialRectangle;collapsible=0;dropTarget=0;pointerEvents=0;fillColor=none;points=[[0,0.5],[1,0.5]];portConstraint=eastwest;top=0;left=0;right=0;bottom=0;" parent="C-vyLk0tnHw3VtMMgP7b-2" vertex="1">
          <mxGeometry y="273" width="274" height="20" as="geometry" />
        </mxCell>
        <mxCell id="C-vyLk0tnHw3VtMMgP7b-10" value="" style="shape=partialRectangle;overflow=hidden;connectable=0;fillColor=none;top=0;left=0;bottom=0;right=0;" parent="C-vyLk0tnHw3VtMMgP7b-9" vertex="1">
          <mxGeometry width="30" height="20" as="geometry" />
        </mxCell>
        <mxCell id="C-vyLk0tnHw3VtMMgP7b-11" value="" style="shape=partialRectangle;overflow=hidden;connectable=0;fillColor=none;top=0;left=0;bottom=0;right=0;align=left;spacingLeft=6;" parent="C-vyLk0tnHw3VtMMgP7b-9" vertex="1">
          <mxGeometry x="30" width="244" height="20" as="geometry" />
        </mxCell>
        <mxCell id="GFCNHjRBVq-8XJuplZEM-13" style="edgeStyle=orthogonalEdgeStyle;orthogonalLoop=1;jettySize=auto;html=1;exitX=1;exitY=0.5;exitDx=0;exitDy=0;entryX=0;entryY=0.5;entryDx=0;entryDy=0;curved=1;" edge="1" parent="1" source="GFCNHjRBVq-8XJuplZEM-1" target="GFCNHjRBVq-8XJuplZEM-12">
          <mxGeometry relative="1" as="geometry" />
        </mxCell>
        <mxCell id="GFCNHjRBVq-8XJuplZEM-1" value="组件A" style="rounded=1;whiteSpace=wrap;html=1;fillColor=#d5e8d4;strokeColor=#82b366;" vertex="1" parent="1">
          <mxGeometry x="44" y="32" width="85" height="32" as="geometry" />
        </mxCell>
        <mxCell id="GFCNHjRBVq-8XJuplZEM-14" style="edgeStyle=orthogonalEdgeStyle;rounded=0;orthogonalLoop=1;jettySize=auto;html=1;exitX=0.5;exitY=1;exitDx=0;exitDy=0;entryX=0.5;entryY=0;entryDx=0;entryDy=0;" edge="1" parent="1" source="GFCNHjRBVq-8XJuplZEM-5" target="GFCNHjRBVq-8XJuplZEM-12">
          <mxGeometry relative="1" as="geometry" />
        </mxCell>
        <mxCell id="GFCNHjRBVq-8XJuplZEM-5" value="组件B" style="rounded=1;whiteSpace=wrap;html=1;fillColor=#dae8fc;strokeColor=#6c8ebf;" vertex="1" parent="1">
          <mxGeometry x="182" y="32" width="85" height="32" as="geometry" />
        </mxCell>
        <mxCell id="GFCNHjRBVq-8XJuplZEM-8" value="" style="shape=mxgraph.gcp2.doubleRect;strokeColor=#dddddd;shadow=1;strokeWidth=1;" vertex="1" parent="1">
          <mxGeometry x="330" y="78" width="91.41" height="42" as="geometry" />
        </mxCell>
        <mxCell id="GFCNHjRBVq-8XJuplZEM-9" value="&lt;font color=&quot;#000000&quot;&gt;APIs&lt;/font&gt;API Analytics" style="dashed=0;connectable=0;html=1;fillColor=#5184F3;strokeColor=none;shape=mxgraph.gcp2.hexIcon;prIcon=api_analytics;part=1;labelPosition=right;verticalLabelPosition=middle;align=left;verticalAlign=middle;spacingLeft=5;fontColor=#999999;fontSize=12;" vertex="1" parent="GFCNHjRBVq-8XJuplZEM-8">
          <mxGeometry y="0.5" width="44" height="39" relative="1" as="geometry">
            <mxPoint x="5" y="-19.5" as="offset" />
          </mxGeometry>
        </mxCell>
        <mxCell id="GFCNHjRBVq-8XJuplZEM-15" style="edgeStyle=orthogonalEdgeStyle;rounded=0;orthogonalLoop=1;jettySize=auto;html=1;" edge="1" parent="1" source="GFCNHjRBVq-8XJuplZEM-12" target="GFCNHjRBVq-8XJuplZEM-8">
          <mxGeometry relative="1" as="geometry" />
        </mxCell>
        <mxCell id="GFCNHjRBVq-8XJuplZEM-12" value="服务C" style="rounded=1;whiteSpace=wrap;html=1;fillColor=#fff2cc;strokeColor=#d6b656;" vertex="1" parent="1">
          <mxGeometry x="198" y="83" width="90" height="32" as="geometry" />
        </mxCell>
        <mxCell id="GFCNHjRBVq-8XJuplZEM-16" value="&lt;div class=&quot;line number1 index0 alt2&quot; style=&quot;margin: 0px ; padding: 0px 1em ; border-radius: 0px ; background-image: none ; border: 0px ; float: none ; height: auto ; line-height: 20px ; outline: 0px ; overflow: visible ; position: static ; text-align: left ; vertical-align: baseline ; width: auto ; box-sizing: content-box ; font-family: &amp;#34;consolas&amp;#34; , &amp;#34;bitstream vera sans mono&amp;#34; , &amp;#34;courier new&amp;#34; , &amp;#34;courier&amp;#34; , monospace ; font-size: 14px ; min-height: inherit ; color: rgb(51 , 51 , 51)&quot;&gt;&lt;code class=&quot;js plain&quot; style=&quot;font-family: &amp;#34;consolas&amp;#34; , &amp;#34;bitstream vera sans mono&amp;#34; , &amp;#34;courier new&amp;#34; , &amp;#34;courier&amp;#34; , monospace ; border-radius: 0px ; background: none ; border: 0px ; float: none ; height: auto ; line-height: 20px ; margin: 0px ; outline: 0px ; overflow: visible ; padding: 0px ; position: static ; vertical-align: baseline ; width: auto ; box-sizing: content-box ; min-height: inherit ; color: rgb(0 , 0 , 0)&quot;&gt;{&lt;/code&gt;&lt;/div&gt;&lt;div class=&quot;line number2 index1 alt1&quot; style=&quot;margin: 0px ; padding: 0px 1em ; border-radius: 0px ; background-image: none ; border: 0px ; float: none ; height: auto ; line-height: 20px ; outline: 0px ; overflow: visible ; position: static ; text-align: left ; vertical-align: baseline ; width: auto ; box-sizing: content-box ; font-family: &amp;#34;consolas&amp;#34; , &amp;#34;bitstream vera sans mono&amp;#34; , &amp;#34;courier new&amp;#34; , &amp;#34;courier&amp;#34; , monospace ; font-size: 14px ; min-height: inherit ; color: rgb(51 , 51 , 51)&quot;&gt;&lt;code class=&quot;js spaces&quot; style=&quot;font-family: &amp;#34;consolas&amp;#34; , &amp;#34;bitstream vera sans mono&amp;#34; , &amp;#34;courier new&amp;#34; , &amp;#34;courier&amp;#34; , monospace ; border-radius: 0px ; background: none ; border: 0px ; float: none ; height: auto ; line-height: 20px ; margin: 0px ; outline: 0px ; overflow: visible ; padding: 0px ; position: static ; vertical-align: baseline ; width: auto ; box-sizing: content-box ; min-height: inherit&quot;&gt;&amp;nbsp;&amp;nbsp;&amp;nbsp;&lt;/code&gt;&lt;code class=&quot;js string&quot; style=&quot;font-family: &amp;#34;consolas&amp;#34; , &amp;#34;bitstream vera sans mono&amp;#34; , &amp;#34;courier new&amp;#34; , &amp;#34;courier&amp;#34; , monospace ; border-radius: 0px ; background: none ; border: 0px ; float: none ; height: auto ; line-height: 20px ; margin: 0px ; outline: 0px ; overflow: visible ; padding: 0px ; position: static ; vertical-align: baseline ; width: auto ; box-sizing: content-box ; min-height: inherit ; color: rgb(0 , 51 , 102)&quot;&gt;&quot;event&quot;&lt;/code&gt;&lt;code class=&quot;js plain&quot; style=&quot;font-family: &amp;#34;consolas&amp;#34; , &amp;#34;bitstream vera sans mono&amp;#34; , &amp;#34;courier new&amp;#34; , &amp;#34;courier&amp;#34; , monospace ; border-radius: 0px ; background: none ; border: 0px ; float: none ; height: auto ; line-height: 20px ; margin: 0px ; outline: 0px ; overflow: visible ; padding: 0px ; position: static ; vertical-align: baseline ; width: auto ; box-sizing: content-box ; min-height: inherit ; color: rgb(0 , 0 , 0)&quot;&gt;:&lt;/code&gt;&lt;code class=&quot;js string&quot; style=&quot;font-family: &amp;#34;consolas&amp;#34; , &amp;#34;bitstream vera sans mono&amp;#34; , &amp;#34;courier new&amp;#34; , &amp;#34;courier&amp;#34; , monospace ; border-radius: 0px ; background: none ; border: 0px ; float: none ; height: auto ; line-height: 20px ; margin: 0px ; outline: 0px ; overflow: visible ; padding: 0px ; position: static ; vertical-align: baseline ; width: auto ; box-sizing: content-box ; min-height: inherit ; color: rgb(0 , 51 , 102)&quot;&gt;&quot;Create&quot;&lt;/code&gt;&lt;code class=&quot;js plain&quot; style=&quot;font-family: &amp;#34;consolas&amp;#34; , &amp;#34;bitstream vera sans mono&amp;#34; , &amp;#34;courier new&amp;#34; , &amp;#34;courier&amp;#34; , monospace ; border-radius: 0px ; background: none ; border: 0px ; float: none ; height: auto ; line-height: 20px ; margin: 0px ; outline: 0px ; overflow: visible ; padding: 0px ; position: static ; vertical-align: baseline ; width: auto ; box-sizing: content-box ; min-height: inherit ; color: rgb(0 , 0 , 0)&quot;&gt;,&lt;/code&gt;&lt;/div&gt;&lt;div class=&quot;line number3 index2 alt2&quot; style=&quot;margin: 0px ; padding: 0px 1em ; border-radius: 0px ; background-image: none ; border: 0px ; float: none ; height: auto ; line-height: 20px ; outline: 0px ; overflow: visible ; position: static ; text-align: left ; vertical-align: baseline ; width: auto ; box-sizing: content-box ; font-family: &amp;#34;consolas&amp;#34; , &amp;#34;bitstream vera sans mono&amp;#34; , &amp;#34;courier new&amp;#34; , &amp;#34;courier&amp;#34; , monospace ; font-size: 14px ; min-height: inherit ; color: rgb(51 , 51 , 51)&quot;&gt;&lt;code class=&quot;js spaces&quot; style=&quot;font-family: &amp;#34;consolas&amp;#34; , &amp;#34;bitstream vera sans mono&amp;#34; , &amp;#34;courier new&amp;#34; , &amp;#34;courier&amp;#34; , monospace ; border-radius: 0px ; background: none ; border: 0px ; float: none ; height: auto ; line-height: 20px ; margin: 0px ; outline: 0px ; overflow: visible ; padding: 0px ; position: static ; vertical-align: baseline ; width: auto ; box-sizing: content-box ; min-height: inherit&quot;&gt;&amp;nbsp;&amp;nbsp;&amp;nbsp;&lt;/code&gt;&lt;code class=&quot;js string&quot; style=&quot;font-family: &amp;#34;consolas&amp;#34; , &amp;#34;bitstream vera sans mono&amp;#34; , &amp;#34;courier new&amp;#34; , &amp;#34;courier&amp;#34; , monospace ; border-radius: 0px ; background: none ; border: 0px ; float: none ; height: auto ; line-height: 20px ; margin: 0px ; outline: 0px ; overflow: visible ; padding: 0px ; position: static ; vertical-align: baseline ; width: auto ; box-sizing: content-box ; min-height: inherit ; color: rgb(0 , 51 , 102)&quot;&gt;&quot;consumerCode&quot;&lt;/code&gt;&lt;code class=&quot;js plain&quot; style=&quot;font-family: &amp;#34;consolas&amp;#34; , &amp;#34;bitstream vera sans mono&amp;#34; , &amp;#34;courier new&amp;#34; , &amp;#34;courier&amp;#34; , monospace ; border-radius: 0px ; background: none ; border: 0px ; float: none ; height: auto ; line-height: 20px ; margin: 0px ; outline: 0px ; overflow: visible ; padding: 0px ; position: static ; vertical-align: baseline ; width: auto ; box-sizing: content-box ; min-height: inherit ; color: rgb(0 , 0 , 0)&quot;&gt;:&lt;/code&gt;&lt;code class=&quot;js string&quot; style=&quot;font-family: &amp;#34;consolas&amp;#34; , &amp;#34;bitstream vera sans mono&amp;#34; , &amp;#34;courier new&amp;#34; , &amp;#34;courier&amp;#34; , monospace ; border-radius: 0px ; background: none ; border: 0px ; float: none ; height: auto ; line-height: 20px ; margin: 0px ; outline: 0px ; overflow: visible ; padding: 0px ; position: static ; vertical-align: baseline ; width: auto ; box-sizing: content-box ; min-height: inherit ; color: rgb(0 , 51 , 102)&quot;&gt;&quot;MGP&quot;&lt;/code&gt;&lt;code class=&quot;js plain&quot; style=&quot;font-family: &amp;#34;consolas&amp;#34; , &amp;#34;bitstream vera sans mono&amp;#34; , &amp;#34;courier new&amp;#34; , &amp;#34;courier&amp;#34; , monospace ; border-radius: 0px ; background: none ; border: 0px ; float: none ; height: auto ; line-height: 20px ; margin: 0px ; outline: 0px ; overflow: visible ; padding: 0px ; position: static ; vertical-align: baseline ; width: auto ; box-sizing: content-box ; min-height: inherit ; color: rgb(0 , 0 , 0)&quot;&gt;,&lt;/code&gt;&lt;/div&gt;&lt;div class=&quot;line number4 index3 alt1&quot; style=&quot;margin: 0px ; padding: 0px 1em ; border-radius: 0px ; background-image: none ; border: 0px ; float: none ; height: auto ; line-height: 20px ; outline: 0px ; overflow: visible ; position: static ; text-align: left ; vertical-align: baseline ; width: auto ; box-sizing: content-box ; font-family: &amp;#34;consolas&amp;#34; , &amp;#34;bitstream vera sans mono&amp;#34; , &amp;#34;courier new&amp;#34; , &amp;#34;courier&amp;#34; , monospace ; font-size: 14px ; min-height: inherit ; color: rgb(51 , 51 , 51)&quot;&gt;&lt;code class=&quot;js spaces&quot; style=&quot;font-family: &amp;#34;consolas&amp;#34; , &amp;#34;bitstream vera sans mono&amp;#34; , &amp;#34;courier new&amp;#34; , &amp;#34;courier&amp;#34; , monospace ; border-radius: 0px ; background: none ; border: 0px ; float: none ; height: auto ; line-height: 20px ; margin: 0px ; outline: 0px ; overflow: visible ; padding: 0px ; position: static ; vertical-align: baseline ; width: auto ; box-sizing: content-box ; min-height: inherit&quot;&gt;&amp;nbsp;&amp;nbsp;&amp;nbsp;&lt;/code&gt;&lt;code class=&quot;js string&quot; style=&quot;font-family: &amp;#34;consolas&amp;#34; , &amp;#34;bitstream vera sans mono&amp;#34; , &amp;#34;courier new&amp;#34; , &amp;#34;courier&amp;#34; , monospace ; border-radius: 0px ; background: none ; border: 0px ; float: none ; height: auto ; line-height: 20px ; margin: 0px ; outline: 0px ; overflow: visible ; padding: 0px ; position: static ; vertical-align: baseline ; width: auto ; box-sizing: content-box ; min-height: inherit ; color: rgb(0 , 51 , 102)&quot;&gt;&quot;providerCode&quot;&lt;/code&gt;&lt;code class=&quot;js plain&quot; style=&quot;font-family: &amp;#34;consolas&amp;#34; , &amp;#34;bitstream vera sans mono&amp;#34; , &amp;#34;courier new&amp;#34; , &amp;#34;courier&amp;#34; , monospace ; border-radius: 0px ; background: none ; border: 0px ; float: none ; height: auto ; line-height: 20px ; margin: 0px ; outline: 0px ; overflow: visible ; padding: 0px ; position: static ; vertical-align: baseline ; width: auto ; box-sizing: content-box ; min-height: inherit ; color: rgb(0 , 0 , 0)&quot;&gt;:&lt;/code&gt;&lt;code class=&quot;js string&quot; style=&quot;font-family: &amp;#34;consolas&amp;#34; , &amp;#34;bitstream vera sans mono&amp;#34; , &amp;#34;courier new&amp;#34; , &amp;#34;courier&amp;#34; , monospace ; border-radius: 0px ; background: none ; border: 0px ; float: none ; height: auto ; line-height: 20px ; margin: 0px ; outline: 0px ; overflow: visible ; padding: 0px ; position: static ; vertical-align: baseline ; width: auto ; box-sizing: content-box ; min-height: inherit ; color: rgb(0 , 51 , 102)&quot;&gt;&quot;IAM&quot;&lt;/code&gt;&lt;code class=&quot;js plain&quot; style=&quot;font-family: &amp;#34;consolas&amp;#34; , &amp;#34;bitstream vera sans mono&amp;#34; , &amp;#34;courier new&amp;#34; , &amp;#34;courier&amp;#34; , monospace ; border-radius: 0px ; background: none ; border: 0px ; float: none ; height: auto ; line-height: 20px ; margin: 0px ; outline: 0px ; overflow: visible ; padding: 0px ; position: static ; vertical-align: baseline ; width: auto ; box-sizing: content-box ; min-height: inherit ; color: rgb(0 , 0 , 0)&quot;&gt;,&lt;/code&gt;&lt;/div&gt;&lt;div class=&quot;line number5 index4 alt2&quot; style=&quot;margin: 0px ; padding: 0px 1em ; border-radius: 0px ; background-image: none ; border: 0px ; float: none ; height: auto ; line-height: 20px ; outline: 0px ; overflow: visible ; position: static ; text-align: left ; vertical-align: baseline ; width: auto ; box-sizing: content-box ; font-family: &amp;#34;consolas&amp;#34; , &amp;#34;bitstream vera sans mono&amp;#34; , &amp;#34;courier new&amp;#34; , &amp;#34;courier&amp;#34; , monospace ; font-size: 14px ; min-height: inherit ; color: rgb(51 , 51 , 51)&quot;&gt;&lt;code class=&quot;js spaces&quot; style=&quot;font-family: &amp;#34;consolas&amp;#34; , &amp;#34;bitstream vera sans mono&amp;#34; , &amp;#34;courier new&amp;#34; , &amp;#34;courier&amp;#34; , monospace ; border-radius: 0px ; background: none ; border: 0px ; float: none ; height: auto ; line-height: 20px ; margin: 0px ; outline: 0px ; overflow: visible ; padding: 0px ; position: static ; vertical-align: baseline ; width: auto ; box-sizing: content-box ; min-height: inherit&quot;&gt;&amp;nbsp;&amp;nbsp;&amp;nbsp;&lt;/code&gt;&lt;code class=&quot;js string&quot; style=&quot;font-family: &amp;#34;consolas&amp;#34; , &amp;#34;bitstream vera sans mono&amp;#34; , &amp;#34;courier new&amp;#34; , &amp;#34;courier&amp;#34; , monospace ; border-radius: 0px ; background: none ; border: 0px ; float: none ; height: auto ; line-height: 20px ; margin: 0px ; outline: 0px ; overflow: visible ; padding: 0px ; position: static ; vertical-align: baseline ; width: auto ; box-sizing: content-box ; min-height: inherit ; color: rgb(0 , 51 , 102)&quot;&gt;&quot;serviceCode&quot;&lt;/code&gt;&lt;code class=&quot;js plain&quot; style=&quot;font-family: &amp;#34;consolas&amp;#34; , &amp;#34;bitstream vera sans mono&amp;#34; , &amp;#34;courier new&amp;#34; , &amp;#34;courier&amp;#34; , monospace ; border-radius: 0px ; background: none ; border: 0px ; float: none ; height: auto ; line-height: 20px ; margin: 0px ; outline: 0px ; overflow: visible ; padding: 0px ; position: static ; vertical-align: baseline ; width: auto ; box-sizing: content-box ; min-height: inherit ; color: rgb(0 , 0 , 0)&quot;&gt;:&lt;/code&gt;&lt;code class=&quot;js string&quot; style=&quot;font-family: &amp;#34;consolas&amp;#34; , &amp;#34;bitstream vera sans mono&amp;#34; , &amp;#34;courier new&amp;#34; , &amp;#34;courier&amp;#34; , monospace ; border-radius: 0px ; background: none ; border: 0px ; float: none ; height: auto ; line-height: 20px ; margin: 0px ; outline: 0px ; overflow: visible ; padding: 0px ; position: static ; vertical-align: baseline ; width: auto ; box-sizing: content-box ; min-height: inherit ; color: rgb(0 , 51 , 102)&quot;&gt;&quot;user-service&quot;&lt;/code&gt;&lt;code class=&quot;js plain&quot; style=&quot;font-family: &amp;#34;consolas&amp;#34; , &amp;#34;bitstream vera sans mono&amp;#34; , &amp;#34;courier new&amp;#34; , &amp;#34;courier&amp;#34; , monospace ; border-radius: 0px ; background: none ; border: 0px ; float: none ; height: auto ; line-height: 20px ; margin: 0px ; outline: 0px ; overflow: visible ; padding: 0px ; position: static ; vertical-align: baseline ; width: auto ; box-sizing: content-box ; min-height: inherit ; color: rgb(0 , 0 , 0)&quot;&gt;,&lt;/code&gt;&lt;/div&gt;&lt;div class=&quot;line number6 index5 alt1&quot; style=&quot;margin: 0px ; padding: 0px 1em ; border-radius: 0px ; background-image: none ; border: 0px ; float: none ; height: auto ; line-height: 20px ; outline: 0px ; overflow: visible ; position: static ; text-align: left ; vertical-align: baseline ; width: auto ; box-sizing: content-box ; font-family: &amp;#34;consolas&amp;#34; , &amp;#34;bitstream vera sans mono&amp;#34; , &amp;#34;courier new&amp;#34; , &amp;#34;courier&amp;#34; , monospace ; font-size: 14px ; min-height: inherit ; color: rgb(51 , 51 , 51)&quot;&gt;&lt;code class=&quot;js spaces&quot; style=&quot;font-family: &amp;#34;consolas&amp;#34; , &amp;#34;bitstream vera sans mono&amp;#34; , &amp;#34;courier new&amp;#34; , &amp;#34;courier&amp;#34; , monospace ; border-radius: 0px ; background: none ; border: 0px ; float: none ; height: auto ; line-height: 20px ; margin: 0px ; outline: 0px ; overflow: visible ; padding: 0px ; position: static ; vertical-align: baseline ; width: auto ; box-sizing: content-box ; min-height: inherit&quot;&gt;&amp;nbsp;&amp;nbsp;&amp;nbsp;&lt;/code&gt;&lt;code class=&quot;js string&quot; style=&quot;font-family: &amp;#34;consolas&amp;#34; , &amp;#34;bitstream vera sans mono&amp;#34; , &amp;#34;courier new&amp;#34; , &amp;#34;courier&amp;#34; , monospace ; border-radius: 0px ; background: none ; border: 0px ; float: none ; height: auto ; line-height: 20px ; margin: 0px ; outline: 0px ; overflow: visible ; padding: 0px ; position: static ; vertical-align: baseline ; width: auto ; box-sizing: content-box ; min-height: inherit ; color: rgb(0 , 51 , 102)&quot;&gt;&quot;apiCode&quot;&lt;/code&gt;&lt;code class=&quot;js plain&quot; style=&quot;font-family: &amp;#34;consolas&amp;#34; , &amp;#34;bitstream vera sans mono&amp;#34; , &amp;#34;courier new&amp;#34; , &amp;#34;courier&amp;#34; , monospace ; border-radius: 0px ; background: none ; border: 0px ; float: none ; height: auto ; line-height: 20px ; margin: 0px ; outline: 0px ; overflow: visible ; padding: 0px ; position: static ; vertical-align: baseline ; width: auto ; box-sizing: content-box ; min-height: inherit ; color: rgb(0 , 0 , 0)&quot;&gt;:&lt;/code&gt;&lt;code class=&quot;js string&quot; style=&quot;font-family: &amp;#34;consolas&amp;#34; , &amp;#34;bitstream vera sans mono&amp;#34; , &amp;#34;courier new&amp;#34; , &amp;#34;courier&amp;#34; , monospace ; border-radius: 0px ; background: none ; border: 0px ; float: none ; height: auto ; line-height: 20px ; margin: 0px ; outline: 0px ; overflow: visible ; padding: 0px ; position: static ; vertical-align: baseline ; width: auto ; box-sizing: content-box ; min-height: inherit ; color: rgb(0 , 51 , 102)&quot;&gt;&quot;MGP20200611214139811&quot;&lt;/code&gt;&lt;code class=&quot;js plain&quot; style=&quot;font-family: &amp;#34;consolas&amp;#34; , &amp;#34;bitstream vera sans mono&amp;#34; , &amp;#34;courier new&amp;#34; , &amp;#34;courier&amp;#34; , monospace ; border-radius: 0px ; background: none ; border: 0px ; float: none ; height: auto ; line-height: 20px ; margin: 0px ; outline: 0px ; overflow: visible ; padding: 0px ; position: static ; vertical-align: baseline ; width: auto ; box-sizing: content-box ; min-height: inherit ; color: rgb(0 , 0 , 0)&quot;&gt;,&lt;/code&gt;&lt;/div&gt;&lt;div class=&quot;line number7 index6 alt2&quot; style=&quot;margin: 0px ; padding: 0px 1em ; border-radius: 0px ; background-image: none ; border: 0px ; float: none ; height: auto ; line-height: 20px ; outline: 0px ; overflow: visible ; position: static ; text-align: left ; vertical-align: baseline ; width: auto ; box-sizing: content-box ; font-family: &amp;#34;consolas&amp;#34; , &amp;#34;bitstream vera sans mono&amp;#34; , &amp;#34;courier new&amp;#34; , &amp;#34;courier&amp;#34; , monospace ; font-size: 14px ; min-height: inherit ; color: rgb(51 , 51 , 51)&quot;&gt;&lt;code class=&quot;js spaces&quot; style=&quot;font-family: &amp;#34;consolas&amp;#34; , &amp;#34;bitstream vera sans mono&amp;#34; , &amp;#34;courier new&amp;#34; , &amp;#34;courier&amp;#34; , monospace ; border-radius: 0px ; background: none ; border: 0px ; float: none ; height: auto ; line-height: 20px ; margin: 0px ; outline: 0px ; overflow: visible ; padding: 0px ; position: static ; vertical-align: baseline ; width: auto ; box-sizing: content-box ; min-height: inherit&quot;&gt;&amp;nbsp;&amp;nbsp;&amp;nbsp;&lt;/code&gt;&lt;code class=&quot;js string&quot; style=&quot;font-family: &amp;#34;consolas&amp;#34; , &amp;#34;bitstream vera sans mono&amp;#34; , &amp;#34;courier new&amp;#34; , &amp;#34;courier&amp;#34; , monospace ; border-radius: 0px ; background: none ; border: 0px ; float: none ; height: auto ; line-height: 20px ; margin: 0px ; outline: 0px ; overflow: visible ; padding: 0px ; position: static ; vertical-align: baseline ; width: auto ; box-sizing: content-box ; min-height: inherit ; color: rgb(0 , 51 , 102)&quot;&gt;&quot;openApiCode&quot;&lt;/code&gt;&lt;code class=&quot;js plain&quot; style=&quot;font-family: &amp;#34;consolas&amp;#34; , &amp;#34;bitstream vera sans mono&amp;#34; , &amp;#34;courier new&amp;#34; , &amp;#34;courier&amp;#34; , monospace ; border-radius: 0px ; background: none ; border: 0px ; float: none ; height: auto ; line-height: 20px ; margin: 0px ; outline: 0px ; overflow: visible ; padding: 0px ; position: static ; vertical-align: baseline ; width: auto ; box-sizing: content-box ; min-height: inherit ; color: rgb(0 , 0 , 0)&quot;&gt;:&lt;/code&gt;&lt;code class=&quot;js string&quot; style=&quot;font-family: &amp;#34;consolas&amp;#34; , &amp;#34;bitstream vera sans mono&amp;#34; , &amp;#34;courier new&amp;#34; , &amp;#34;courier&amp;#34; , monospace ; border-radius: 0px ; background: none ; border: 0px ; float: none ; height: auto ; line-height: 20px ; margin: 0px ; outline: 0px ; overflow: visible ; padding: 0px ; position: static ; vertical-align: baseline ; width: auto ; box-sizing: content-box ; min-height: inherit ; color: rgb(0 , 51 , 102)&quot;&gt;&quot;GW2020061121414356&quot;&lt;/code&gt;&lt;code class=&quot;js plain&quot; style=&quot;font-family: &amp;#34;consolas&amp;#34; , &amp;#34;bitstream vera sans mono&amp;#34; , &amp;#34;courier new&amp;#34; , &amp;#34;courier&amp;#34; , monospace ; border-radius: 0px ; background: none ; border: 0px ; float: none ; height: auto ; line-height: 20px ; margin: 0px ; outline: 0px ; overflow: visible ; padding: 0px ; position: static ; vertical-align: baseline ; width: auto ; box-sizing: content-box ; min-height: inherit ; color: rgb(0 , 0 , 0)&quot;&gt;,&lt;/code&gt;&lt;/div&gt;&lt;div class=&quot;line number8 index7 alt1&quot; style=&quot;margin: 0px ; padding: 0px 1em ; border-radius: 0px ; background-image: none ; border: 0px ; float: none ; height: auto ; line-height: 20px ; outline: 0px ; overflow: visible ; position: static ; text-align: left ; vertical-align: baseline ; width: auto ; box-sizing: content-box ; font-family: &amp;#34;consolas&amp;#34; , &amp;#34;bitstream vera sans mono&amp;#34; , &amp;#34;courier new&amp;#34; , &amp;#34;courier&amp;#34; , monospace ; font-size: 14px ; min-height: inherit ; color: rgb(51 , 51 , 51)&quot;&gt;&lt;code class=&quot;js spaces&quot; style=&quot;font-family: &amp;#34;consolas&amp;#34; , &amp;#34;bitstream vera sans mono&amp;#34; , &amp;#34;courier new&amp;#34; , &amp;#34;courier&amp;#34; , monospace ; border-radius: 0px ; background: none ; border: 0px ; float: none ; height: auto ; line-height: 20px ; margin: 0px ; outline: 0px ; overflow: visible ; padding: 0px ; position: static ; vertical-align: baseline ; width: auto ; box-sizing: content-box ; min-height: inherit&quot;&gt;&amp;nbsp;&amp;nbsp;&amp;nbsp;&lt;/code&gt;&lt;code class=&quot;js string&quot; style=&quot;font-family: &amp;#34;consolas&amp;#34; , &amp;#34;bitstream vera sans mono&amp;#34; , &amp;#34;courier new&amp;#34; , &amp;#34;courier&amp;#34; , monospace ; border-radius: 0px ; background: none ; border: 0px ; float: none ; height: auto ; line-height: 20px ; margin: 0px ; outline: 0px ; overflow: visible ; padding: 0px ; position: static ; vertical-align: baseline ; width: auto ; box-sizing: content-box ; min-height: inherit ; color: rgb(0 , 51 , 102)&quot;&gt;&quot;env&quot;&lt;/code&gt;&lt;code class=&quot;js plain&quot; style=&quot;font-family: &amp;#34;consolas&amp;#34; , &amp;#34;bitstream vera sans mono&amp;#34; , &amp;#34;courier new&amp;#34; , &amp;#34;courier&amp;#34; , monospace ; border-radius: 0px ; background: none ; border: 0px ; float: none ; height: auto ; line-height: 20px ; margin: 0px ; outline: 0px ; overflow: visible ; padding: 0px ; position: static ; vertical-align: baseline ; width: auto ; box-sizing: content-box ; min-height: inherit ; color: rgb(0 , 0 , 0)&quot;&gt;:&lt;/code&gt;&lt;code class=&quot;js string&quot; style=&quot;font-family: &amp;#34;consolas&amp;#34; , &amp;#34;bitstream vera sans mono&amp;#34; , &amp;#34;courier new&amp;#34; , &amp;#34;courier&amp;#34; , monospace ; border-radius: 0px ; background: none ; border: 0px ; float: none ; height: auto ; line-height: 20px ; margin: 0px ; outline: 0px ; overflow: visible ; padding: 0px ; position: static ; vertical-align: baseline ; width: auto ; box-sizing: content-box ; min-height: inherit ; color: rgb(0 , 51 , 102)&quot;&gt;&quot;dev&quot;&lt;/code&gt;&lt;code class=&quot;js plain&quot; style=&quot;font-family: &amp;#34;consolas&amp;#34; , &amp;#34;bitstream vera sans mono&amp;#34; , &amp;#34;courier new&amp;#34; , &amp;#34;courier&amp;#34; , monospace ; border-radius: 0px ; background: none ; border: 0px ; float: none ; height: auto ; line-height: 20px ; margin: 0px ; outline: 0px ; overflow: visible ; padding: 0px ; position: static ; vertical-align: baseline ; width: auto ; box-sizing: content-box ; min-height: inherit ; color: rgb(0 , 0 , 0)&quot;&gt;,&lt;/code&gt;&lt;/div&gt;&lt;div class=&quot;line number9 index8 alt2&quot; style=&quot;margin: 0px ; padding: 0px 1em ; border-radius: 0px ; background-image: none ; border: 0px ; float: none ; height: auto ; line-height: 20px ; outline: 0px ; overflow: visible ; position: static ; text-align: left ; vertical-align: baseline ; width: auto ; box-sizing: content-box ; font-family: &amp;#34;consolas&amp;#34; , &amp;#34;bitstream vera sans mono&amp;#34; , &amp;#34;courier new&amp;#34; , &amp;#34;courier&amp;#34; , monospace ; font-size: 14px ; min-height: inherit ; color: rgb(51 , 51 , 51)&quot;&gt;&lt;code class=&quot;js spaces&quot; style=&quot;font-family: &amp;#34;consolas&amp;#34; , &amp;#34;bitstream vera sans mono&amp;#34; , &amp;#34;courier new&amp;#34; , &amp;#34;courier&amp;#34; , monospace ; border-radius: 0px ; background: none ; border: 0px ; float: none ; height: auto ; line-height: 20px ; margin: 0px ; outline: 0px ; overflow: visible ; padding: 0px ; position: static ; vertical-align: baseline ; width: auto ; box-sizing: content-box ; min-height: inherit&quot;&gt;&amp;nbsp;&amp;nbsp;&amp;nbsp;&lt;/code&gt;&lt;code class=&quot;js string&quot; style=&quot;font-family: &amp;#34;consolas&amp;#34; , &amp;#34;bitstream vera sans mono&amp;#34; , &amp;#34;courier new&amp;#34; , &amp;#34;courier&amp;#34; , monospace ; border-radius: 0px ; background: none ; border: 0px ; float: none ; height: auto ; line-height: 20px ; margin: 0px ; outline: 0px ; overflow: visible ; padding: 0px ; position: static ; vertical-align: baseline ; width: auto ; box-sizing: content-box ; min-height: inherit ; color: rgb(0 , 51 , 102)&quot;&gt;&quot;url&quot;&lt;/code&gt;&lt;code class=&quot;js plain&quot; style=&quot;font-family: &amp;#34;consolas&amp;#34; , &amp;#34;bitstream vera sans mono&amp;#34; , &amp;#34;courier new&amp;#34; , &amp;#34;courier&amp;#34; , monospace ; border-radius: 0px ; background: none ; border: 0px ; float: none ; height: auto ; line-height: 20px ; margin: 0px ; outline: 0px ; overflow: visible ; padding: 0px ; position: static ; vertical-align: baseline ; width: auto ; box-sizing: content-box ; min-height: inherit ; color: rgb(0 , 0 , 0)&quot;&gt;:&lt;/code&gt;&lt;code class=&quot;js string&quot; style=&quot;font-family: &amp;#34;consolas&amp;#34; , &amp;#34;bitstream vera sans mono&amp;#34; , &amp;#34;courier new&amp;#34; , &amp;#34;courier&amp;#34; , monospace ; border-radius: 0px ; background: none ; border: 0px ; float: none ; height: auto ; line-height: 20px ; margin: 0px ; outline: 0px ; overflow: visible ; padding: 0px ; position: static ; vertical-align: baseline ; width: auto ; box-sizing: content-box ; min-height: inherit ; color: rgb(0 , 51 , 102)&quot;&gt;&quot;/jjisj&quot;&lt;/code&gt;&lt;code class=&quot;js plain&quot; style=&quot;font-family: &amp;#34;consolas&amp;#34; , &amp;#34;bitstream vera sans mono&amp;#34; , &amp;#34;courier new&amp;#34; , &amp;#34;courier&amp;#34; , monospace ; border-radius: 0px ; background: none ; border: 0px ; float: none ; height: auto ; line-height: 20px ; margin: 0px ; outline: 0px ; overflow: visible ; padding: 0px ; position: static ; vertical-align: baseline ; width: auto ; box-sizing: content-box ; min-height: inherit ; color: rgb(0 , 0 , 0)&quot;&gt;,&lt;/code&gt;&lt;/div&gt;&lt;div class=&quot;line number10 index9 alt1&quot; style=&quot;margin: 0px ; padding: 0px 1em ; border-radius: 0px ; background-image: none ; border: 0px ; float: none ; height: auto ; line-height: 20px ; outline: 0px ; overflow: visible ; position: static ; text-align: left ; vertical-align: baseline ; width: auto ; box-sizing: content-box ; font-family: &amp;#34;consolas&amp;#34; , &amp;#34;bitstream vera sans mono&amp;#34; , &amp;#34;courier new&amp;#34; , &amp;#34;courier&amp;#34; , monospace ; font-size: 14px ; min-height: inherit ; color: rgb(51 , 51 , 51)&quot;&gt;&lt;code class=&quot;js spaces&quot; style=&quot;font-family: &amp;#34;consolas&amp;#34; , &amp;#34;bitstream vera sans mono&amp;#34; , &amp;#34;courier new&amp;#34; , &amp;#34;courier&amp;#34; , monospace ; border-radius: 0px ; background: none ; border: 0px ; float: none ; height: auto ; line-height: 20px ; margin: 0px ; outline: 0px ; overflow: visible ; padding: 0px ; position: static ; vertical-align: baseline ; width: auto ; box-sizing: content-box ; min-height: inherit&quot;&gt;&amp;nbsp;&amp;nbsp;&amp;nbsp;&lt;/code&gt;&lt;code class=&quot;js string&quot; style=&quot;font-family: &amp;#34;consolas&amp;#34; , &amp;#34;bitstream vera sans mono&amp;#34; , &amp;#34;courier new&amp;#34; , &amp;#34;courier&amp;#34; , monospace ; border-radius: 0px ; background: none ; border: 0px ; float: none ; height: auto ; line-height: 20px ; margin: 0px ; outline: 0px ; overflow: visible ; padding: 0px ; position: static ; vertical-align: baseline ; width: auto ; box-sizing: content-box ; min-height: inherit ; color: rgb(0 , 51 , 102)&quot;&gt;&quot;createdBy&quot;&lt;/code&gt;&lt;code class=&quot;js plain&quot; style=&quot;font-family: &amp;#34;consolas&amp;#34; , &amp;#34;bitstream vera sans mono&amp;#34; , &amp;#34;courier new&amp;#34; , &amp;#34;courier&amp;#34; , monospace ; border-radius: 0px ; background: none ; border: 0px ; float: none ; height: auto ; line-height: 20px ; margin: 0px ; outline: 0px ; overflow: visible ; padding: 0px ; position: static ; vertical-align: baseline ; width: auto ; box-sizing: content-box ; min-height: inherit ; color: rgb(0 , 0 , 0)&quot;&gt;：&lt;/code&gt;&lt;code class=&quot;js string&quot; style=&quot;font-family: &amp;#34;consolas&amp;#34; , &amp;#34;bitstream vera sans mono&amp;#34; , &amp;#34;courier new&amp;#34; , &amp;#34;courier&amp;#34; , monospace ; border-radius: 0px ; background: none ; border: 0px ; float: none ; height: auto ; line-height: 20px ; margin: 0px ; outline: 0px ; overflow: visible ; padding: 0px ; position: static ; vertical-align: baseline ; width: auto ; box-sizing: content-box ; min-height: inherit ; color: rgb(0 , 51 , 102)&quot;&gt;&quot;MC578456608&quot;&lt;/code&gt;&lt;/div&gt;&lt;div class=&quot;line number11 index10 alt2&quot; style=&quot;margin: 0px ; padding: 0px 1em ; border-radius: 0px ; background-image: none ; border: 0px ; float: none ; height: auto ; line-height: 20px ; outline: 0px ; overflow: visible ; position: static ; text-align: left ; vertical-align: baseline ; width: auto ; box-sizing: content-box ; font-family: &amp;#34;consolas&amp;#34; , &amp;#34;bitstream vera sans mono&amp;#34; , &amp;#34;courier new&amp;#34; , &amp;#34;courier&amp;#34; , monospace ; font-size: 14px ; min-height: inherit ; color: rgb(51 , 51 , 51)&quot;&gt;&lt;code class=&quot;js plain&quot; style=&quot;font-family: &amp;#34;consolas&amp;#34; , &amp;#34;bitstream vera sans mono&amp;#34; , &amp;#34;courier new&amp;#34; , &amp;#34;courier&amp;#34; , monospace ; border-radius: 0px ; background: none ; border: 0px ; float: none ; height: auto ; line-height: 20px ; margin: 0px ; outline: 0px ; overflow: visible ; padding: 0px ; position: static ; vertical-align: baseline ; width: auto ; box-sizing: content-box ; min-height: inherit ; color: rgb(0 , 0 , 0)&quot;&gt;}&lt;/code&gt;&lt;/div&gt;" style="shape=note;whiteSpace=wrap;html=1;backgroundOutline=1;darkOpacity=0.05;" vertex="1" parent="1">
          <mxGeometry x="574" y="-170" width="294" height="215" as="geometry" />
        </mxCell>
        <mxCell id="GFCNHjRBVq-8XJuplZEM-19" value="mgp_request_relation" style="shape=table;startSize=30;container=1;collapsible=1;childLayout=tableLayout;fixedRows=1;rowLines=0;fontStyle=1;align=center;resizeLast=1;" vertex="1" parent="1">
          <mxGeometry x="576" y="77" width="250" height="190" as="geometry" />
        </mxCell>
        <mxCell id="GFCNHjRBVq-8XJuplZEM-20" value="" style="shape=partialRectangle;collapsible=0;dropTarget=0;pointerEvents=0;fillColor=none;points=[[0,0.5],[1,0.5]];portConstraint=eastwest;top=0;left=0;right=0;bottom=1;" vertex="1" parent="GFCNHjRBVq-8XJuplZEM-19">
          <mxGeometry y="30" width="250" height="30" as="geometry" />
        </mxCell>
        <mxCell id="GFCNHjRBVq-8XJuplZEM-21" value="PK" style="shape=partialRectangle;overflow=hidden;connectable=0;fillColor=none;top=0;left=0;bottom=0;right=0;fontStyle=1;" vertex="1" parent="GFCNHjRBVq-8XJuplZEM-20">
          <mxGeometry width="30" height="30" as="geometry" />
        </mxCell>
        <mxCell id="GFCNHjRBVq-8XJuplZEM-22" value="id" style="shape=partialRectangle;overflow=hidden;connectable=0;fillColor=none;top=0;left=0;bottom=0;right=0;align=left;spacingLeft=6;fontStyle=5;" vertex="1" parent="GFCNHjRBVq-8XJuplZEM-20">
          <mxGeometry x="30" width="220" height="30" as="geometry" />
        </mxCell>
        <mxCell id="GFCNHjRBVq-8XJuplZEM-23" value="" style="shape=partialRectangle;collapsible=0;dropTarget=0;pointerEvents=0;fillColor=none;points=[[0,0.5],[1,0.5]];portConstraint=eastwest;top=0;left=0;right=0;bottom=0;" vertex="1" parent="GFCNHjRBVq-8XJuplZEM-19">
          <mxGeometry y="60" width="250" height="125" as="geometry" />
        </mxCell>
        <mxCell id="GFCNHjRBVq-8XJuplZEM-24" value="" style="shape=partialRectangle;overflow=hidden;connectable=0;fillColor=none;top=0;left=0;bottom=0;right=0;" vertex="1" parent="GFCNHjRBVq-8XJuplZEM-23">
          <mxGeometry width="30" height="125" as="geometry" />
        </mxCell>
        <mxCell id="GFCNHjRBVq-8XJuplZEM-25" value="event&#xa;consumerCode&#xa;providerCode&#xa;serviceCode&#xa;openApiCode&#xa;env" style="shape=partialRectangle;overflow=hidden;connectable=0;fillColor=none;top=0;left=0;bottom=0;right=0;align=left;spacingLeft=6;" vertex="1" parent="GFCNHjRBVq-8XJuplZEM-23">
          <mxGeometry x="30" width="220" height="125" as="geometry" />
        </mxCell>
        <mxCell id="GFCNHjRBVq-8XJuplZEM-27" value="开发者A" style="rounded=1;whiteSpace=wrap;html=1;fillColor=#d5e8d4;strokeColor=#82b366;" vertex="1" parent="1">
          <mxGeometry x="35" y="376" width="85" height="32" as="geometry" />
        </mxCell>
        <mxCell id="GFCNHjRBVq-8XJuplZEM-34" style="edgeStyle=orthogonalEdgeStyle;curved=1;orthogonalLoop=1;jettySize=auto;html=1;" edge="1" parent="1" source="GFCNHjRBVq-8XJuplZEM-28" target="GFCNHjRBVq-8XJuplZEM-32">
          <mxGeometry relative="1" as="geometry" />
        </mxCell>
        <mxCell id="GFCNHjRBVq-8XJuplZEM-39" style="edgeStyle=orthogonalEdgeStyle;curved=1;orthogonalLoop=1;jettySize=auto;html=1;entryX=0;entryY=0.5;entryDx=0;entryDy=0;" edge="1" parent="1" source="GFCNHjRBVq-8XJuplZEM-28" target="GFCNHjRBVq-8XJuplZEM-37">
          <mxGeometry relative="1" as="geometry" />
        </mxCell>
        <mxCell id="GFCNHjRBVq-8XJuplZEM-28" value="组件B" style="rounded=1;whiteSpace=wrap;html=1;fillColor=#dae8fc;strokeColor=#6c8ebf;" vertex="1" parent="1">
          <mxGeometry x="206" y="376" width="97" height="32" as="geometry" />
        </mxCell>
        <mxCell id="GFCNHjRBVq-8XJuplZEM-32" value="" style="shape=mxgraph.gcp2.doubleRect;strokeColor=#dddddd;shadow=1;strokeWidth=1;" vertex="1" parent="1">
          <mxGeometry x="394" y="338" width="91.41" height="42" as="geometry" />
        </mxCell>
        <mxCell id="GFCNHjRBVq-8XJuplZEM-33" value="&lt;font color=&quot;#000000&quot;&gt;APIs&lt;/font&gt;API Analytics" style="dashed=0;connectable=0;html=1;fillColor=#5184F3;strokeColor=none;shape=mxgraph.gcp2.hexIcon;prIcon=api_analytics;part=1;labelPosition=right;verticalLabelPosition=middle;align=left;verticalAlign=middle;spacingLeft=5;fontColor=#999999;fontSize=12;" vertex="1" parent="GFCNHjRBVq-8XJuplZEM-32">
          <mxGeometry y="0.5" width="44" height="39" relative="1" as="geometry">
            <mxPoint x="5" y="-19.5" as="offset" />
          </mxGeometry>
        </mxCell>
        <mxCell id="GFCNHjRBVq-8XJuplZEM-41" style="edgeStyle=orthogonalEdgeStyle;curved=1;orthogonalLoop=1;jettySize=auto;html=1;exitX=1;exitY=0.25;exitDx=0;exitDy=0;entryX=0;entryY=0.5;entryDx=0;entryDy=0;" edge="1" parent="1" source="GFCNHjRBVq-8XJuplZEM-35" target="GFCNHjRBVq-8XJuplZEM-28">
          <mxGeometry relative="1" as="geometry" />
        </mxCell>
        <mxCell id="GFCNHjRBVq-8XJuplZEM-35" value="主账号" style="rounded=0;whiteSpace=wrap;html=1;dashed=1;fillColor=none;" vertex="1" parent="1">
          <mxGeometry x="65" y="398" width="76" height="36" as="geometry" />
        </mxCell>
        <mxCell id="GFCNHjRBVq-8XJuplZEM-42" style="edgeStyle=orthogonalEdgeStyle;curved=1;orthogonalLoop=1;jettySize=auto;html=1;exitX=1;exitY=0.5;exitDx=0;exitDy=0;entryX=0;entryY=1;entryDx=0;entryDy=0;" edge="1" parent="1" source="GFCNHjRBVq-8XJuplZEM-36" target="GFCNHjRBVq-8XJuplZEM-32">
          <mxGeometry relative="1" as="geometry" />
        </mxCell>
        <mxCell id="GFCNHjRBVq-8XJuplZEM-36" value="子账号" style="rounded=0;whiteSpace=wrap;html=1;dashed=1;fillColor=none;" vertex="1" parent="1">
          <mxGeometry x="92" y="428" width="79" height="38" as="geometry" />
        </mxCell>
        <mxCell id="GFCNHjRBVq-8XJuplZEM-37" value="" style="shape=mxgraph.gcp2.doubleRect;strokeColor=#dddddd;shadow=1;strokeWidth=1;" vertex="1" parent="1">
          <mxGeometry x="397" y="504" width="91.41" height="42" as="geometry" />
        </mxCell>
        <mxCell id="GFCNHjRBVq-8XJuplZEM-38" value="&lt;font color=&quot;#000000&quot;&gt;APIs&lt;/font&gt;API Analytics" style="dashed=0;connectable=0;html=1;fillColor=#5184F3;strokeColor=none;shape=mxgraph.gcp2.hexIcon;prIcon=api_analytics;part=1;labelPosition=right;verticalLabelPosition=middle;align=left;verticalAlign=middle;spacingLeft=5;fontColor=#999999;fontSize=12;" vertex="1" parent="GFCNHjRBVq-8XJuplZEM-37">
          <mxGeometry y="0.5" width="44" height="39" relative="1" as="geometry">
            <mxPoint x="5" y="-19.5" as="offset" />
          </mxGeometry>
        </mxCell>
        <mxCell id="GFCNHjRBVq-8XJuplZEM-43" style="edgeStyle=orthogonalEdgeStyle;curved=1;orthogonalLoop=1;jettySize=auto;html=1;exitX=1;exitY=0.5;exitDx=0;exitDy=0;entryX=0;entryY=1;entryDx=0;entryDy=0;" edge="1" parent="1" source="GFCNHjRBVq-8XJuplZEM-40" target="GFCNHjRBVq-8XJuplZEM-37">
          <mxGeometry relative="1" as="geometry" />
        </mxCell>
        <mxCell id="GFCNHjRBVq-8XJuplZEM-40" value="子账号" style="rounded=0;whiteSpace=wrap;html=1;dashed=1;fillColor=none;" vertex="1" parent="1">
          <mxGeometry x="92" y="457" width="79" height="38" as="geometry" />
        </mxCell>
        <mxCell id="GFCNHjRBVq-8XJuplZEM-44" value="&lt;div&gt;&lt;div&gt;{&lt;/div&gt;&lt;div&gt;&lt;span&gt;	&lt;/span&gt;&quot;type&quot;: &quot;ServiceApi&quot;,&lt;/div&gt;&lt;div&gt;&lt;span&gt;	&lt;/span&gt;&quot;event&quot;: &quot;Sync&quot;,&lt;/div&gt;&lt;div&gt;&lt;span&gt;	&lt;/span&gt;&quot;timestamp&quot;: &quot;1614044927&quot;,&lt;/div&gt;&lt;div&gt;&lt;span&gt;	&lt;/span&gt;&quot;data&quot;: {&lt;/div&gt;&lt;div&gt;&lt;span&gt;		&lt;/span&gt;&quot;userCode&quot;: &quot;MC302462235&quot;,&lt;/div&gt;&lt;div&gt;&lt;span&gt;		&lt;/span&gt;&quot;apiList&quot;: null,&lt;/div&gt;&lt;div&gt;&lt;span&gt;		&lt;/span&gt;&quot;serviceThirdCode&quot;: &quot;newapm&quot;,&lt;/div&gt;&lt;div&gt;&lt;span&gt;		&lt;/span&gt;&quot;userName&quot;: &quot;陈8688&quot;,&lt;/div&gt;&lt;div&gt;&lt;span&gt;		&lt;/span&gt;&quot;event&quot;: &quot;create&quot;,&lt;/div&gt;&lt;div&gt;&lt;span&gt;		&lt;/span&gt;&quot;root&quot;: true&lt;/div&gt;&lt;div&gt;&lt;span&gt;	&lt;/span&gt;}&lt;/div&gt;&lt;div&gt;}&lt;/div&gt;&lt;/div&gt;" style="shape=note;whiteSpace=wrap;html=1;backgroundOutline=1;darkOpacity=0.05;dashed=1;fillColor=none;align=left;" vertex="1" parent="1">
          <mxGeometry x="410" y="611" width="262" height="253" as="geometry" />
        </mxCell>
      </root>
    </mxGraphModel>
  </diagram>
</mxfile>
